# xmcd
#
# Track frame offsets:
#	150
#	16817
#	43722
#	59681
#	80371
#	100644
#	124064
#	137925
#	154905
#	176310
#	196923
#
# Disc length: 2850 seconds
#
# Revision: 1
# Processed by: cddbd v1.5.2PL0 Copyright (c) Steve Scherf et al.
# Submitted via: audiograbber 1.83.01
#
DISCID=8b0b200b
DTITLE=Kentucky Blue Balls - Balls Out
DYEAR=2012
DGENRE=Indie Rock
TTITLE0=Hell to Pay
TTITLE1=Barrels Bound for Broadway
TTITLE2=Built to Last
TTITLE3=Jameson's Been Murdered
TTITLE4=Long for the Sea
TTITLE5=Two Star Hotel
TTITLE6=Unlucky as Sin
TTITLE7=Slush on my Boots
TTITLE8=Worn-out Welcome
TTITLE9=Spirit of my Home
TTITLE10=Last Man Standing
EXTD=
EXTT0=
EXTT1=
EXTT2=
EXTT3=
EXTT4=
EXTT5=
EXTT6=
EXTT7=
EXTT8=
EXTT9=
EXTT10=
PLAYORDER=
